<svg width="200" height="200" viewBox="0 0 200 200" fill="none" xmlns="http://www.w3.org/2000/svg" role="img" aria-label="Avatar icon">
  <rect width="200" height="200" fill="white"/>
  <g stroke="#1F2933" stroke-width="4" stroke-linecap="round" stroke-linejoin="round">
    <line x1="36" y1="50" x2="100" y2="90"/>
    <line x1="164" y1="50" x2="100" y2="90"/>
    <line x1="36" y1="150" x2="100" y2="90"/>
    <line x1="164" y1="150" x2="100" y2="90"/>
    <line x1="36" y1="50" x2="36" y2="150"/>
    <line x1="164" y1="50" x2="164" y2="150"/>
  </g>
  <g>
    <polygon points="100,40 50,70 100,100 150,70" fill="#3B4148"/>
    <polygon points="50,70 50,130 100,160 100,100" fill="#F59E0B"/>
    <polygon points="150,70 150,130 100,160 100,100" fill="#374151"/>
    <polygon points="100,40 50,70 100,100 150,70" stroke="#1F2933" stroke-width="3" fill="none"/>
    <polygon points="50,70 50,130 100,160 100,100" stroke="#1F2933" stroke-width="3" fill="none"/>
    <polygon points="150,70 150,130 100,160 100,100" stroke="#1F2933" stroke-width="3" fill="none"/>
  </g>
  <g fill="#1F2933">
    <circle cx="36" cy="50" r="6"/>
    <circle cx="164" cy="50" r="6"/>
    <circle cx="36" cy="150" r="6"/>
    <circle cx="164" cy="150" r="6"/>
    <circle cx="100" cy="90" r="7"/>
  </g>
</svg>
